<?xml version="1.0" standalone="no"?><!DOCTYPE svg PUBLIC "-//W3C//DTD SVG 1.1//EN" "http://www.w3.org/Graphics/SVG/1.1/DTD/svg11.dtd"><svg t="1716639477250" class="icon" viewBox="0 0 1024 1024" version="1.1" xmlns="http://www.w3.org/2000/svg" p-id="7021" xmlns:xlink="http://www.w3.org/1999/xlink" width="64" height="64"><path d="M849.408 96.256h-167.424v-59.904c0-17.408-14.336-31.744-31.744-31.744-17.408 0-31.744 14.336-31.744 31.744v59.904h-242.688v-59.904c0-17.408-14.336-31.744-31.744-31.744-17.408 0-31.744 14.336-31.744 31.744v59.904h-135.168c-52.736 0-95.744 39.936-95.744 88.576v750.08c0 49.152 43.008 88.576 95.744 88.576h416.256v-62.976h-416.256c-17.408 0-32.256-11.776-32.256-25.6V184.832c0-13.824 14.848-25.6 32.256-25.6h135.168v59.904c0 17.408 14.336 31.744 31.744 31.744 17.408 0 31.744-14.336 31.744-31.744v-59.904h242.688v59.904c0 17.408 14.336 31.744 31.744 31.744 17.408 0 31.744-14.336 31.744-31.744v-59.904h167.424c17.408 0 32.256 11.776 32.256 25.6v514.56h62.976V184.832c0.512-48.64-42.496-88.576-95.232-88.576z m-101.888 299.52h-468.48c-17.408 0-31.744 14.336-31.744 31.744 0 17.408 14.336 31.744 31.744 31.744h468.48c17.408 0 31.744-14.336 31.744-31.744 0-17.408-13.824-31.744-31.744-31.744z m-182.784 201.728c0-17.408-14.336-31.744-31.744-31.744h-253.952c-17.408 0-31.744 14.336-31.744 31.744s14.336 31.744 31.744 31.744h253.952c17.92 0 31.744-14.336 31.744-31.744z" fill="#3B7BF6" p-id="7022"></path><path d="M687.104 883.2c0.512-2.56 1.024-5.12 0.512-8.192-3.584-44.544 11.776-78.336 42.496-96.256 33.792-19.456 79.36-14.848 115.712 11.264 11.776 8.704 28.672 5.632 36.864-6.144 8.704-11.776 5.632-28.672-6.144-36.864-53.248-37.888-121.344-43.008-173.056-13.824-31.232 17.92-52.736 46.08-62.976 80.896l-6.144-8.704c-0.512-0.512-0.512-1.024-1.024-1.536-9.216-11.776-25.6-13.824-37.376-4.608-11.776 9.216-13.824 25.6-4.608 37.376l47.616 66.048c5.12 7.168 12.8 11.264 21.504 11.264 5.632 0 11.264-1.536 15.872-5.12 8.192-6.656 11.776-16.384 10.752-25.6z m280.576 7.168l-48.128-65.536c-8.704-11.264-24.576-13.312-36.352-5.632-7.68 5.632-11.776 14.336-11.264 23.552-1.024 3.072-1.024 6.144-1.024 9.216 4.096 44.544-10.752 78.336-41.472 96.768-33.28 19.456-78.848 15.872-115.712-9.728-11.776-7.168-27.136-4.608-35.328 6.656-8.704 11.776-6.656 28.672 5.12 37.376 29.184 19.968 63.488 31.232 98.816 31.232 26.112 0 51.712-6.656 74.24-19.456 31.232-17.92 52.224-46.592 62.464-81.408l6.144 8.704c5.12 6.656 12.8 10.752 21.504 10.752 5.632 0 11.264-2.048 15.872-5.12 11.264-9.216 13.824-25.6 5.12-37.376z" fill="#92B7FE" p-id="7023"></path></svg>