<?xml version="1.0" standalone="no"?><!DOCTYPE svg PUBLIC "-//W3C//DTD SVG 1.1//EN" "http://www.w3.org/Graphics/SVG/1.1/DTD/svg11.dtd"><svg t="1700321072792" class="icon" viewBox="0 0 1265 1024" version="1.1" xmlns="http://www.w3.org/2000/svg" p-id="25412" xmlns:xlink="http://www.w3.org/1999/xlink" width="316.25" height="256"><path d="M1236.529 1024h-117.577a19.678 19.678 0 0 1 0-39.356h127.268a19.678 19.678 0 0 1 0 39.356z m-213.705-0.295a19.678 19.678 0 0 1 0-39.356h41.177a19.678 19.678 0 1 1 0 39.356z m-90.519 0c-220.936 0-447.677-3.345-666.94-6.543l-127.908-1.87a19.678 19.678 0 0 1 0.295-39.356h0.295l127.908 1.82c231.218 3.395 470.208 6.888 702.066 6.494a19.678 19.678 0 0 1 0 39.356z m-846.946-8.806h-0.59c-16.874-0.492-38.127-0.689-64.987-0.492h-0.099a19.678 19.678 0 0 1 0-39.356c27.304 0 49.195 0 66.365 0.492a19.678 19.678 0 0 1-0.59 39.356z" p-id="25413"></path><path d="M1087.713 759.772a33.748 33.748 0 1 1 33.748-33.748 33.748 33.748 0 0 1-33.748 33.748z m0-62.576a28.828 28.828 0 1 0 28.828 28.828 28.828 28.828 0 0 0-28.828-28.828z" fill="#FF6903" p-id="25414"></path><path d="M208.347 82.746a23.614 23.614 0 1 1 23.614-23.613 23.614 23.614 0 0 1-23.614 23.613z m0-42.307a18.694 18.694 0 1 0 18.694 18.694 18.694 18.694 0 0 0-18.694-18.694z" fill="#7AF4EB" p-id="25415"></path><path d="M1038.911 0l10.085 20.465 22.58 3.247-16.332 15.94 3.837 22.482-20.17-10.627-20.22 10.627 3.887-22.483-16.332-15.939 22.58-3.247L1038.911 0z m-895.01 414.47l3.001-17.513-12.741-12.397L151.772 382l7.823-15.89 7.674 15.89 17.563 2.559-12.643 12.397 3 17.513-15.742-8.264z m15.694-13.824l9.199 4.92-1.525-10.331 7.428-7.232-10.232-1.476-4.624-9.298-4.576 9.298-10.281 1.476 7.428 7.232-1.722 10.233z" fill="#FF6903" p-id="25416"></path><path d="M1149.01 286.12h-4.92v-4.92a4.92 4.92 0 1 0-9.838 0v4.92h-4.92a4.92 4.92 0 0 0 0 9.839h4.92v4.92a4.92 4.92 0 1 0 9.839 0v-4.92h4.92a4.92 4.92 0 0 0 0-9.84zM98.79 533.769l-13.431 9.74 5.116 15.841h16.628l5.166-15.84-13.48-9.741z" fill="#7AF4EB" p-id="25417"></path><path d="M1210.8 491.56h-18.744a4.034 4.034 0 0 0-1.279 0.295 5.608 5.608 0 0 0 1.132-0.738l13.38-13.234a4.428 4.428 0 0 0 0-6.248l-2.066-2.066a4.428 4.428 0 0 0-6.247 0l-13.234 13.234a4.083 4.083 0 0 0-0.689 1.082 5.756 5.756 0 0 0 0.246-1.328v-18.695a4.428 4.428 0 0 0-4.427-4.427h-3.1a4.428 4.428 0 0 0-4.427 4.427v18.695a5.362 5.362 0 0 0 0 1.279 4.083 4.083 0 0 0-0.738-1.132l-13.234-13.233a4.428 4.428 0 0 0-6.247 0l-2.067 2.066a4.428 4.428 0 0 0 0 6.248l13.234 13.233a4.083 4.083 0 0 0 1.131 0.738 4.33 4.33 0 0 0-1.328-0.295h-18.743a4.477 4.477 0 0 0-4.428 4.428v2.902a4.428 4.428 0 0 0 4.428 4.428h18.743a3.936 3.936 0 0 0 1.28-0.246 4.083 4.083 0 0 0-1.132 0.738l-13.234 13.233a4.428 4.428 0 0 0 0 6.248l2.066 2.066a4.428 4.428 0 0 0 6.248 0l13.234-13.233a4.083 4.083 0 0 0 0.689-1.083 5.313 5.313 0 0 0 0 1.329v18.694a4.428 4.428 0 0 0 4.427 4.427h2.903a4.428 4.428 0 0 0 4.427-4.427V512.27a5.362 5.362 0 0 0 0-1.28 4.083 4.083 0 0 0 0.738 1.132l13.234 13.234a4.428 4.428 0 0 0 6.247 0l2.067-2.067a4.428 4.428 0 0 0 0-6.247l-13.234-13.234a4.083 4.083 0 0 0-1.131-0.738 4.23 4.23 0 0 0 1.328 0h18.743a4.428 4.428 0 0 0 4.428-4.428v-2.902a4.477 4.477 0 0 0-4.624-4.182z m-25.188 12.249l-2.067 2.017a4.428 4.428 0 0 0-1.082 4.378 4.378 4.378 0 0 0-3.837-2.361h-2.854a4.378 4.378 0 0 0-3.837 2.361 4.477 4.477 0 0 0-1.033-4.427l-2.066-2.066a4.378 4.378 0 0 0-4.378-1.034 4.378 4.378 0 0 0 2.36-3.886v-2.902a4.378 4.378 0 0 0-2.311-3.838 4.28 4.28 0 0 0 4.378-1.033l2.066-2.066a4.378 4.378 0 0 0 1.083-4.378 4.33 4.33 0 0 0 3.738 2.46h2.903a4.378 4.378 0 0 0 3.837-2.362 4.477 4.477 0 0 0 1.033 4.428l2.067 2.066a4.378 4.378 0 0 0 4.378 1.033 4.378 4.378 0 0 0-2.361 3.837v2.903a4.28 4.28 0 0 0 2.312 3.837 4.33 4.33 0 0 0-4.33 1.033zM201.065 730.157a3.296 3.296 0 0 0 3.296-3.297v-8.609a3.296 3.296 0 1 0-6.592 0v8.855a3.296 3.296 0 0 0 3.296 3.05z m-8.806 1.672a3.296 3.296 0 0 0 4.92-4.673l-6.248-6.248a3.296 3.296 0 1 0-4.674 4.92z m2.952 4.133a3.296 3.296 0 0 0-3.296-3.297h-8.855a3.296 3.296 0 0 0 0 6.593h8.806a3.296 3.296 0 0 0 3.345-3.296z m1.574 4.132a3.345 3.345 0 0 0-4.92 0l-6.247 6.248a3.296 3.296 0 0 0 4.92 4.673l6.247-6.247a3.345 3.345 0 0 0 0-4.674z m4.231 1.722a3.296 3.296 0 0 0-3.296 3.296v8.855a3.296 3.296 0 1 0 6.592 0v-8.855a3.296 3.296 0 0 0-3.296-3.296z m8.806-1.673a3.345 3.345 0 0 0-4.674 0 3.247 3.247 0 0 0 0 4.625l6.396 6.297a3.296 3.296 0 0 0 4.92-4.674z m9.2-7.428h-8.856a3.296 3.296 0 1 0 0 6.592h8.855a3.296 3.296 0 0 0 0-6.592z m-13.824-0.837a3.345 3.345 0 0 0 4.673 0l6.248-6.247a3.296 3.296 0 0 0-4.92-4.674l-6.247 6.248a3.345 3.345 0 0 0 0.246 4.673zM85.359 251.191a8.462 8.462 0 1 0 16.923 0 8.462 8.462 0 1 0-16.923 0z" fill="#EF3FE7" p-id="25418"></path><path d="M619.865 69.513c-5.804 1.476-11.511 3.148-17.168 4.92a309.29 309.29 0 0 0 296.942 516.255q8.708-2.214 17.12-4.92A309.34 309.34 0 0 0 619.866 69.513z" fill="#54FE4C" p-id="25419"></path><path d="M770.945 624.78A309.242 309.242 0 0 1 559.797 89.34a309.29 309.29 0 1 0 330.642 511.237 309.094 309.094 0 0 1-119.496 24.204z" fill="#54FE4C" p-id="25420"></path><path d="M638.855 168.199a309.537 309.537 0 0 0 7.035 310.471m-68.43 132.63A309.242 309.242 0 0 0 778.765 72.318a309.29 309.29 0 1 1-321.245 517.19 307.963 307.963 0 0 0 119.938 21.794z" fill="#52D64A" p-id="25421"></path><path d="M541.153 318.048a4.92 4.92 0 0 1-4.181-2.313c-19.679-31.73-2.51-53.524-1.771-54.41a4.92 4.92 0 0 1 7.674 6.15c-0.59 0.787-13.332 17.563 2.46 43.095a4.92 4.92 0 0 1-1.624 6.74 4.428 4.428 0 0 1-2.558 0.738zM547.253 245.435a5.46 5.46 0 1 0 10.922 0 5.46 5.46 0 1 0-10.922 0z" fill="#FFFFFF" p-id="25422"></path><path d="M422.543 165.887a19.678 19.678 0 0 1-14.217-6.051 19.678 19.678 0 0 1 0.541-27.845c7.625-7.33 15.743-14.365 24.007-20.957a19.678 19.678 0 0 1 24.598 30.894 231.892 231.892 0 0 0-21.302 18.449 19.678 19.678 0 0 1-13.627 5.51z m214.246 532.391a329.018 329.018 0 0 1-261.522-528.603 19.678 19.678 0 0 1 31.288 23.908A286.809 286.809 0 0 0 347.175 369.31a289.613 289.613 0 0 0 579.226 0 19.678 19.678 0 0 1 39.356 0 329.608 329.608 0 0 1-328.97 328.969z m291.088-414.175a19.678 19.678 0 0 1-18.546-13.037 289.81 289.81 0 0 0-410.978-156.244 19.678 19.678 0 1 1-18.841-34.437A329.166 329.166 0 0 1 946.375 257.833a19.678 19.678 0 0 1-18.498 26.368z" p-id="25423"></path><path d="M495.451 461.55a19.678 19.678 0 0 1-18.842-13.873C408.621 220.74 558.913 65.135 565.161 58.641a19.678 19.678 0 0 1 27.992 27.648C587.397 92.143 452.945 232.3 514.145 436.362a19.678 19.678 0 0 1-13.234 24.598 18.793 18.793 0 0 1-5.46 0.59z m162.393 0a19.678 19.678 0 0 1-5.559-0.787 19.678 19.678 0 0 1-13.332-24.598c19.679-66.462-8.953-292.023-21.596-373.293a19.678 19.678 0 1 1 38.864-6.051c1.919 12.298 46.539 302.01 20.465 390.463a19.678 19.678 0 0 1-18.842 14.266z m161.804 0a19.678 19.678 0 0 1-19.039-24.597C860.479 208.588 661.535 79.746 659.566 78.466a19.678 19.678 0 1 1 21.007-33.256 410.486 410.486 0 0 1 104.441 103.31c43.833 62.183 88.552 164.362 53.672 298.222a19.678 19.678 0 0 1-19.038 14.808z" p-id="25424"></path><path d="M322.825 484.278c-18.646 0-33.994 15.989-35.52 36.602q-1.328 17.218-1.328 34.78c0 234.712 171.938 424.95 384.068 424.95s384.117-190.238 384.117-424.95c0-11.708-0.492-23.318-1.329-34.78-1.574-20.613-16.874-36.602-35.568-36.602z" fill="#CBF0FF" p-id="25425"></path><path d="M1077.382 502.48c-1.525-20.612-16.874-36.551-35.52-36.551H941.112a38.618 38.618 0 0 1 27.795 35.568q1.329 17.218 1.329 34.83C970.235 752 824.961 929.89 636.789 957.44a348.5 348.5 0 0 0 57.657 4.92c212.13 0 384.067-190.239 384.067-424.9q0-17.76-1.131-34.978z" fill="#52C6FF" p-id="25426"></path><path d="M636.789 981.889A444.48 444.48 0 0 1 206.625 649.378a19.678 19.678 0 1 1 38.077-9.84 405.32 405.32 0 0 0 797.554-102.08c0-10.97-0.491-22.137-1.426-33.206a19.678 19.678 0 0 0-19.678-18.498h-768.48a19.678 19.678 0 0 0-19.678 18.498 19.678 19.678 0 1 1-39.356-3.247 59.034 59.034 0 0 1 59.034-54.607h768.234a59.034 59.034 0 0 1 59.034 54.607c1.033 12.102 1.574 24.597 1.574 36.454a445.119 445.119 0 0 1-444.725 444.43z" p-id="25427"></path><path d="M216.465 618.483a19.678 19.678 0 0 1-19.679-16.825c-1.23-8.215-2.164-16.578-2.902-24.597a19.678 19.678 0 0 1 39.356-3.444 388.361 388.361 0 0 0 2.607 22.63 19.678 19.678 0 0 1-16.628 22.285 18.99 18.99 0 0 1-2.755-0.049z" p-id="25428"></path><path d="M386.729 723.909a9.84 9.84 0 0 1-6.297-2.263c-32.124-26.763-42.406-101.097-42.8-104.245a9.84 9.84 0 1 1 19.678-2.657c2.608 19.383 14.169 73.793 35.913 91.75a9.84 9.84 0 0 1 1.23 13.873 9.84 9.84 0 0 1-7.724 3.542zM337.682 585.473a7.33 7.33 0 1 0 14.66 0 7.33 7.33 0 1 0-14.66 0zM324.694 544.493a20.318 20.318 0 1 0 40.635 0 20.318 20.318 0 1 0-40.635 0z" fill="#FFFFFF" p-id="25429"></path><path d="M511.046 686.766a31.977 31.977 0 1 0 63.954 0 31.977 31.977 0 1 0-63.954 0z" p-id="25430"></path><path d="M495.5 774.334a16.382 16.382 0 1 0 32.764 0 16.382 16.382 0 1 0-32.764 0zM743.1 774.334a16.382 16.382 0 1 0 32.764 0 16.382 16.382 0 1 0-32.764 0z" fill="#58C3F9" p-id="25431"></path><path d="M691.445 686.766a31.977 31.977 0 1 0 63.954 0 31.977 31.977 0 1 0-63.954 0zM684.803 774.334h-94.454c0 13.529 11.118 25.188 27.155 30.6v-1.92a20.318 20.318 0 1 1 40.636 0v1.92c15.545-5.412 26.663-17.071 26.663-30.6z" p-id="25432"></path><path d="M637.527 782.697a20.318 20.318 0 0 0-20.318 20.318v1.918a63.954 63.954 0 0 0 40.242 0v-1.918a20.318 20.318 0 0 0-19.924-20.318z" fill="#F47A1E" p-id="25433"></path><path d="M490.875 85.649a9.84 9.84 0 0 1-9.15-6.297l-5.559-14.414a9.84 9.84 0 0 1 18.35-7.035l5.56 14.365a9.84 9.84 0 0 1-5.658 12.692 8.904 8.904 0 0 1-3.542 0.689z m-116.986 120.38a9.84 9.84 0 0 1-6.543-2.508l-20.317-18.153a9.84 9.84 0 1 1 13.135-14.759l20.317 18.153a9.84 9.84 0 0 1 0.738 13.923 9.84 9.84 0 0 1-7.33 3.345z m93.176 114.478h-0.443l-17.218-0.738a9.84 9.84 0 1 1 0.935-19.678l17.218 0.837a9.84 9.84 0 0 1-0.492 19.678z m181.53-164.46h-31.386a9.84 9.84 0 0 1 0-19.678h31.387a9.84 9.84 0 0 1 0 19.678z m42.8 93.767a9.84 9.84 0 0 1-6.296-2.312l-21.351-17.81a9.84 9.84 0 0 1 12.594-15.102l21.4 17.809a9.84 9.84 0 0 1-6.346 17.415z m-68.233 90.125a9.84 9.84 0 0 1-4.92-18.251l27.697-16.677a9.84 9.84 0 1 1 10.233 16.775l-27.894 16.973a9.84 9.84 0 0 1-5.116 1.18z m68.283 59.33h-21.4a9.84 9.84 0 0 1 0-19.678h21.4a9.84 9.84 0 0 1 0 19.678z m-33.65-329.46a9.84 9.84 0 0 1-9.494-7.43l-6.79-27.254a9.84 9.84 0 1 1 19.088-4.92l6.79 27.255a9.84 9.84 0 0 1-7.183 11.905 10.085 10.085 0 0 1-2.41 0.443z m50.622 0a9.84 9.84 0 0 1-6.641-17.12l15.054-13.628a9.84 9.84 0 0 1 13.184 14.759L715.255 67.447a9.84 9.84 0 0 1-6.838 2.361z m81.714 204.455a9.84 9.84 0 0 1-2.559-19.383l27.205-7.281a9.84 9.84 0 0 1 4.92 18.99l-27.205 7.33a11.807 11.807 0 0 1-2.361 0.344z m67.545 65.675h-13.43a9.84 9.84 0 0 1 0-19.678h13.43a9.84 9.84 0 0 1 0 19.678z m116.1 56.526h-15.594a9.84 9.84 0 0 1 0-19.678h15.595a9.84 9.84 0 0 1 0 19.678z m-76.4-216.46a10.233 10.233 0 0 1-4.132-0.885 9.84 9.84 0 0 1-4.92-13.037l7.38-15.988a9.84 9.84 0 0 1 17.907 8.215l-7.38 15.989a9.84 9.84 0 0 1-8.855 5.707z" p-id="25434"></path></svg>