<?xml version="1.0" standalone="no"?><!DOCTYPE svg PUBLIC "-//W3C//DTD SVG 1.1//EN" "http://www.w3.org/Graphics/SVG/1.1/DTD/svg11.dtd"><svg t="1726510870247" class="icon" viewBox="0 0 1152 1024" version="1.1" xmlns="http://www.w3.org/2000/svg" p-id="6250" xmlns:xlink="http://www.w3.org/1999/xlink" width="225" height="200"><path d="M331.968 778.432l49.984-137.344H611.2l50.048 137.344h87.36l-205.376-533.12H450.688l-205.376 533.12h86.656z m254.592-204.544H406.592l88.896-241.216h2.944l88.128 241.216zM896 256a32 32 0 0 1 5.76 63.488L896 320h-256a32 32 0 0 1-5.76-63.488L640 256h256zM896 384a32 32 0 0 1 5.76 63.488L896 448h-192a32 32 0 0 1-5.76-63.488L704 384h192zM896 512a32 32 0 0 1 5.76 63.488L896 576h-128a32 32 0 0 1-5.76-63.488L768 512h128zM76.288 320c24.512 0 44.352-19.84 44.352-44.288V88.64h187.072a44.288 44.288 0 1 0 0-88.64H120.64C71.68 0 32 39.744 32 88.64v187.072C32 300.16 51.84 320 76.288 320z m231.424 615.36H120.64v-187.072a44.288 44.288 0 1 0-88.64 0v187.072C32 984.32 71.744 1024 120.64 1024h187.072a44.288 44.288 0 1 0 0-88.64zM1031.36 0h-187.072a44.288 44.288 0 1 0 0 88.64h187.072v187.072a44.288 44.288 0 1 0 88.64 0V88.64C1120 39.68 1080.256 0 1031.36 0z m44.352 704a44.288 44.288 0 0 0-44.352 44.288v187.072h-187.072a44.288 44.288 0 1 0 0 88.64h187.072c48.896 0 88.64-39.744 88.64-88.64v-187.072a44.288 44.288 0 0 0-44.288-44.288z" fill="#82529d" p-id="6251"></path></svg>